<svg width="276" height="276" xmlns="http://www.w3.org/2000/svg" xmlns:xlink="http://www.w3.org/1999/xlink" xml:space="preserve" overflow="hidden"><g transform="translate(-914 -273)"><g><g><g><g><path d="M1007.38 448.167C1014.06 455.581 1012.08 468.26 1002.95 476.487 993.825 484.714 981.009 485.372 974.326 477.958 967.644 470.543 969.627 457.864 978.754 449.637 987.882 441.411 1000.7 440.752 1007.38 448.167Z" fill="#003458" fill-rule="nonzero" fill-opacity="1"/><path d="M1149.22 448.167C1155.91 455.581 1153.92 468.26 1144.8 476.487 1135.67 484.713 1122.85 485.372 1116.17 477.957 1109.49 470.543 1111.47 457.864 1120.6 449.637 1129.72 441.411 1142.54 440.752 1149.22 448.167Z" fill="#003458" fill-rule="nonzero" fill-opacity="1"/><path d="M972.948 342.75 968.771 362.802 936.891 362.802 935.101 371.396 966.981 371.396 964.595 382.854 942.62 382.854 940.83 391.448 962.804 391.448 960.418 402.906 925.433 402.906 923.642 411.5 958.628 411.5 982.724 411.5 1091.88 411.5 1106.2 342.75 972.948 342.75Z" fill="#003458" fill-rule="nonzero" fill-opacity="1"/><path d="M1178.48 413.792 1165.69 402.333C1163.98 400.794 1162.98 398.617 1162.93 396.318L1161.32 376.552C1160.58 366.924 1152.38 359.591 1142.73 359.938L1114.09 359.938 1105.72 400.042 1102.14 417.229 1092.6 463.062 1104.06 463.062C1107.35 447.307 1122.92 434.417 1138.68 434.417 1154.43 434.417 1164.63 447.307 1161.35 463.062 1168.01 462.771 1173.67 458.091 1175.2 451.604L1181.17 422.958C1181.99 419.642 1180.96 416.139 1178.48 413.792ZM1117.18 400.042 1123.15 371.396 1140.33 371.396C1145.07 371.077 1149.17 374.658 1149.49 379.393 1149.49 379.496 1149.5 379.6 1149.5 379.703L1151.11 399.469C1151.05 399.755 1151.34 399.755 1151.28 400.042Z" fill="#003458" fill-rule="nonzero" fill-opacity="1"/><path d="M947.885 463.062 962.208 463.062C965.491 447.307 981.066 434.417 996.821 434.417 1012.58 434.417 1022.78 447.307 1019.5 463.062L1081.15 463.062 1089.5 422.958 956.25 422.958Z" fill="#003458" fill-rule="nonzero" fill-opacity="1"/></g></g></g></g></g></svg>