<?xml version="1.0" encoding="utf-8"?>
<!-- Generator: Adobe Illustrator 25.0.0, SVG Export Plug-In . SVG Version: 6.00 Build 0)  -->
<svg version="1.1" id="Livello_1" xmlns="http://www.w3.org/2000/svg" xmlns:xlink="http://www.w3.org/1999/xlink" x="0px" y="0px"
	 viewBox="0 0 300 139.52" style="enable-background:new 0 0 300 139.52;" xml:space="preserve">
<style type="text/css">
	.st0{fill:#2581C4;stroke:#2581C4;stroke-width:0.3287;stroke-miterlimit:10;}
	.st1{fill:#004676;stroke:#004676;stroke-width:0.3287;stroke-miterlimit:10;}
</style>
<g>
	<path class="st0" d="M122.99,67.24v69.59H83.74l0.21-96.16h-38.8l-0.21,96.16H5.85V67.24v-5.92c0-32.35,26.22-58.57,58.57-58.57h0
		c32.35,0,58.57,26.22,58.57,58.57V67.24z"/>
	<g>
		<path class="st0" d="M62.74,72.87H52.08V61.22c0-2.94,2.39-5.33,5.33-5.33h0c2.94,0,5.33,2.39,5.33,5.33V72.87z"/>
		<path class="st0" d="M76.76,72.87H66.1V61.22c0-2.94,2.39-5.33,5.33-5.33h0c2.94,0,5.33,2.39,5.33,5.33V72.87z"/>
	</g>
	<path class="st1" d="M144.84,136.83V40.66h50.26v16.35h-31.49V78.6h24.22v16.35h-24.22v25.52h33.61v16.35H144.84z"/>
	<path class="st1" d="M275.37,136.83V40.66h18.77v96.16H275.37z"/>
	<path class="st1" d="M262.79,109.58c0,15.89-12.88,28.77-28.76,28.77s-28.76-12.88-28.76-28.77l0-0.3V40.66h18.77v69.36l0,1.65
		c0,5.4,4.15,10.06,9.54,10.3c5.72,0.25,10.44-4.31,10.44-9.98l0-1.97V40.66h18.77v68.61L262.79,109.58z"/>
</g>
</svg>
