<!--?xml version="1.0" encoding="UTF-8" standalone="no"?-->
<svg class="sidebar_rdm" id="data-life-cycle" inkscape:version="1.3.2 (091e20e, 2023-11-25)" sodipodi:docname="EUI-RDM-lifecycle-color-FINAL-V2.svg" style="enable-background:new 0 0 250.9 251; width: 50%; margin:auto;" version="1.1" viewbox="0 0 250.9 251" x="0px" xml:space="preserve"
    xmlns="http://www.w3.org/2000/svg"
    xmlns:inkscape="http://www.inkscape.org/namespaces/inkscape"
    xmlns:sodipodi="http://sodipodi.sourceforge.net/DTD/sodipodi-0.dtd"
    xmlns:svg="http://www.w3.org/2000/svg" y="0px">
    <defs id="defs33"></defs>
    <sodipodi:namedview bordercolor="#000000" borderopacity="0.25" id="namedview33" inkscape:current-layer="link-to-processing" inkscape:cx="127.83804" inkscape:cy="138.65262" inkscape:deskcolor="#d1d1d1" inkscape:pagecheckerboard="0" inkscape:pageopacity="0.0" inkscape:showpageshadow="2" inkscape:window-height="862" inkscape:window-maximized="0" inkscape:window-width="1280" inkscape:window-x="234" inkscape:window-y="39" inkscape:zoom="3.0976695" pagecolor="#ffffff"></sodipodi:namedview>
    <style id="style1" type="text/css">.st10,.st12,.st13,.st14,.st15,.st16,.st17 {fill:#73757d;} .st10{fill:#FA484B;} .st15{fill:#F67028;} .st16{fill:#FAC54B;} .st14{fill:#8ABA56;} .st13{fill:#32B890;} .st12{fill:#4176A5;} .st17{fill:#9E51AD;} .st1{fill:#FFFFFF; pointer-events: none;} .st0{fill:#FA484B;} .st5{fill:#F67028;} .st6{fill:#FAC54B;} .st4{fill:#8ABA56;} .st3{fill:#32B890;} .st2{fill:#4176A5;} .st7{fill:#9E51AD;} .st8{font-family: &#39;Exo 2&#39;, sans-serif;} .st9{font-size:13.5px;} .st0,.st2,.st3,.st4,.st5,.st6,.st7 {transition: fill 0.3s;} .st10:hover{fill:#73757d;cursor: pointer;} .st15:hover{fill:#73757d;cursor: pointer;} .st16:hover{fill:#73757d;cursor: pointer;} .st14:hover{fill:#73757d;cursor: pointer;} .st13:hover{fill:#73757d;cursor: pointer;} .st12:hover{fill:#73757d;cursor: pointer;} .st17:hover{fill:#73757d;cursor: pointer;} text {pointer-events : none;}
    </style>
    <a href="https://eui.libguides.com/research-data-guide/register-archive-share" id="link-to-share" inkscape:label="link-to-share" style="enable-background:new 0 0 250.9 251" target="_top" title="share">
        <g id="ReusePath" inkscape:label="SharePath">
            <path class="st10" d="M63.9,52.1l14.9,33.1c10.7-12.4,26.2-20.5,43.6-21.3l16.7-32.3L122.9,0C85.3,0.8,51.7,18.1,29.2,45L63.9,52.1z                                     " id="path25"></path>
            <path class="st1" d="m 82.899519,25.168773 c 0.3,0 0.5,-0.2 0.5,-0.5 v -4 c 0,-1 0.8,-1.8 1.8,-1.8 h 22.800001 l -5.4,5.4 c -0.2,0.2 -0.2,0.5 0,0.7 0.2,0.2 0.2,0.1 0.4,0.1 0.2,0 0.3,0 0.4,-0.1 l 6.3,-6.3 c 0,0 0,-0.1 0.1,-0.2 0,-0.1 0,-0.3 0,-0.4 0,0 0,-0.1 -0.1,-0.2 l -6.3,-6.3 c -0.2,-0.2 -0.5,-0.2 -0.7,0 -0.2,0.2 -0.2,0.5 0,0.7 l 5.4,5.4 H 85.299519 c -1.5,0 -2.8,1.3 -2.8,2.8 v 4 c 0,0.3 0.2,0.5 0.5,0.5 z" id="path25-8" style="enable-background:new 0 0 250.9 251;fill:#ffffff"></path>
            <path class="st1" d="m 109.19952,25.368773 c -0.3,0 -0.5,0.2 -0.5,0.5 v 4 c 0,1 -0.8,1.8 -1.8,1.8 H 84.099519 l 5.4,-5.4 c 0.2,-0.2 0.2,-0.5 0,-0.7 -0.2,-0.2 -0.5,-0.2 -0.7,0 l -6.3,6.3 c 0,0 0,0.1 -0.1,0.2 0,0 0,0.1 0,0.2 0,0.1 0,0.1 0,0.2 0,0 0,0.1 0.1,0.2 l 6.3,6.3 c 0,0 0.2,0.1 0.4,0.1 0.2,0 0.3,0 0.4,-0.1 0.2,-0.2 0.2,-0.5 0,-0.7 l -5.4,-5.4 h 22.800001 c 1.5,0 2.8,-1.3 2.8,-2.8 v -4 c 0,-0.3 -0.2,-0.5 -0.5,-0.5 z" id="path26-6" style="enable-background:new 0 0 250.9 251;fill:#ffffff"></path>
        </g>
        <text class="st1 st8 st9" id="text28" inkscape:label="share" style="enable-background:new 0 0 250.9 251;-inkscape-font-specification:'Nunito Sans, @wght=400';font-family:'Nunito Sans';font-weight:normal;font-style:normal;font-stretch:normal;font-variant:normal;font-size:14.6667px;font-variant-ligatures:normal;font-variant-caps:normal;font-variant-numeric:normal;font-variant-east-asian:normal;fill:#ffffff;font-variation-settings:'wght' 400" transform="translate(76.3974,53.4992)">Share</text>
    </a>
    <a href="https://eui.libguides.com/research-data-guide/register-archive-share" id="link-to-archive" inkscape:label="link-to-archive" style="enable-background:new 0 0 250.9 251;text-decoration:none;" target="_top" title="sharing">
        <g id="SharePath" inkscape:label="ArchivePath">
            <path class="st17" d="M29.8,127.8l35.1,9c-0.7-3.7-1.1-7.5-1.1-11.4c0-13.4,4.3-25.9,11.6-36L60.6,56.3l-34.8-7                                     C9.6,70.4,0,96.8,0,125.5c0,8.6,0.9,17,2.5,25.1L29.8,127.8z" id="path23"></path>
            <path class="st1" d="m 37.689682,96.798869 c -5.7,0 -11.9,-1.5 -11.9,-4.3 v -20.2 c 0,0 0,0 0,0 0,-2.8 6.1,-4.3 11.9,-4.3 5.8,0 11.9,1.5 11.9,4.3 0,2.8 0,0.1 0,0.2 0,0 0,0 0,0 v 0 19.9 0 c 0,0.2 0,0.2 0,0.3 0,0 0,0 0,0 v 0.2 c 0,0 0,0 0,0 -0.6,2.5 -6.3,3.9 -11.8,3.9 z m -11.6,-4.2 c 0.2,2.6 6.1,3.9 11.6,3.9 5.5,0 11.1,-1.3 11.6,-3.8 v 0 c 0,-0.1 0,-0.2 0,-0.2 0,0 0,0 0,0 v 0 -20 0 0 c 0,-0.2 0,-0.2 0,-0.2 0,0 0,0 0,-0.1 0,-2.6 -6,-4.1 -11.6,-4.1 -5.6,0 -11.6,1.4 -11.6,4.1 0,2.7 0,0 0,0 0,0 0,0 0,0 v 0 c 0,0.1 0,0.1 0,0.1 v 19.9 h 0.7 v -5 l 0.2,0.2 c 1.7,1.4 6,2.4 10.7,2.4 4.7,0 8.9,-1 10.6,-2.4 l 0.2,-0.2 v 5.2 c -0.3,1.5 -4.5,3.1 -10.8,3.1 -6.3,0 -10.6,-1.6 -10.8,-3.2 h -0.8 z m 1,-0.3 v 0 c 0,1.4 4,3.2 10.6,3.2 6.6,0 10.3,-1.5 10.6,-2.9 v -4.7 c -1.9,1.4 -6,2.3 -10.6,2.3 -4.6,0 -8.8,-0.9 -10.6,-2.3 z m 10.6,-2.9 c -6.1,0 -10.1,-1.5 -10.8,-2.9 v 0 -6.3 l 0.2,0.2 c 1.7,1.4 6,2.4 10.7,2.4 4.7,0 8.9,-1 10.6,-2.4 l 0.2,-0.2 v 6.3 0 c -0.8,1.4 -4.9,2.9 -10.8,2.9 z m -10.6,-3 c 0.7,1.4 4.9,2.8 10.6,2.8 5.7,0 9.8,-1.4 10.6,-2.7 v -5.7 c -1.9,1.4 -6,2.3 -10.6,2.3 -4.6,0 -8.8,-0.9 -10.6,-2.3 v 5.7 z m 10.6,-4.1 c -6.1,0 -10.1,-1.5 -10.8,-2.9 v 0 -5.6 l 0.2,0.2 c 1.8,1.5 6,2.4 10.7,2.4 4.7,0 8.8,-0.9 10.6,-2.4 l 0.2,-0.2 v 5.7 0 c -0.8,1.4 -4.9,2.9 -10.8,2.9 z m -10.6,-3.1 c 0.7,1.4 4.9,2.8 10.6,2.8 5.7,0 9.8,-1.4 10.6,-2.7 v -5.1 c -1.9,1.4 -6,2.3 -10.6,2.3 -4.6,0 -8.7,-0.9 -10.6,-2.3 z m 10.6,-3.7 c -6.5,0 -10.9,-1.7 -10.9,-3.3 0,-1.6 4.4,-3.3 10.9,-3.3 6.5,0 10.9,1.7 10.9,3.3 0,1.6 -4.4,3.3 -10.9,3.3 z m 0,-6.4 c -6.6,0 -10.6,1.8 -10.6,3.1 0,1.3 4,3.1 10.6,3.1 6.6,0 10.6,-1.8 10.6,-3.1 0,-1.3 -4,-3.1 -10.6,-3.1 z" id="path17" style="display:inline;fill:#ffffff"></path>
            <path class="st1" d="m 49.411115,92.500198 v -20 0 c 0,0 0,-0.2 0,-0.2 0,-2.7 -6,-4.2 -11.7,-4.2 -5.7,0 -11.7,1.5 -11.7,4.2 0,2.7 0,0 0,0.1 v 0 20.1 h 1 v -4.8 c 1.8,1.6 6.4,2.4 10.7,2.4 4.3,0 8.8,-0.8 10.7,-2.4 v 5 c -0.3,1.5 -4.6,3 -10.7,3 -6.1,0 -10.7,-1.7 -10.7,-3.2 h -1 c 0,2.7 6,4.2 11.7,4.2 5.7,0 11.2,-1.4 11.7,-3.9 v 0 c 0,-0.2 0,-0.2 0,-0.3 z m -22.4,-18.5 c 1.9,1.6 6.4,2.4 10.7,2.4 4.3,0 8.7,-0.8 10.7,-2.4 v 5.4 c -0.8,1.4 -5,2.8 -10.7,2.8 -5.7,0 -10,-1.4 -10.7,-2.9 z m 10.7,-4.9 c 6.3,0 10.7,1.7 10.7,3.2 0,1.5 -4.4,3.2 -10.7,3.2 -6.3,0 -10.7,-1.7 -10.7,-3.2 0,-1.5 4.4,-3.2 10.7,-3.2 z m 0,20.3 c -5.8,0 -10,-1.4 -10.7,-2.9 v -6 c 1.8,1.6 6.4,2.4 10.7,2.4 4.3,0 8.8,-0.8 10.7,-2.4 v 6 c -0.8,1.4 -5,2.8 -10.7,2.8 z" id="path16" style="display:inline;fill:#ffffff"></path>
        </g>
        <text class="st1 st8 st9" id="text27" inkscape:label="archive" style="font-style:normal;font-variant:normal;font-weight:normal;font-stretch:normal;font-size:14.6667px;font-family:'Nunito Sans';-inkscape-font-specification:'Nunito Sans, @wght=400';font-variant-ligatures:normal;font-variant-caps:normal;font-variant-numeric:normal;font-variant-east-asian:normal;font-variation-settings:'wght' 400;fill:#ffffff" x="8.8010263" y="113.47942">Archive</text>
    </a>
    <a href="https://eui.libguides.com/research-data-guide/process-analyse" id="link-to-analyse" inkscape:label="link-to-analyse" style="enable-background:new 0 0 250.9 251;text-decoration:none;" target="_top" title="archive">
        <g id="AnalysePath" inkscape:label="AnalysePath">
            <path class="st12" d="M67.6,201.7l29-21.8c-14.7-7.8-25.8-21.4-30.4-37.8L31,133L3.8,155.8c8.8,35.5,32.8,65.1,64.7,81.4L67.6,201.7                                     z" id="path19"></path>
            <path class="st1" d="m 35.205572,165.70124 c 0.3,0.3 0.7,0.5 1.1,0.5 0.4,0 0.8,-0.2 1.1,-0.5 0.3,-0.3 0.5,-0.7 0.5,-1.1 0,-0.4 0,-0.6 -0.2,-0.8 l 4.9,-4.9 c 0.2,0.1 0.5,0.2 0.8,0.2 0.4,0 0.8,-0.2 1.1,-0.5 0,0 0,0 0,0 l 4.4,2.2 c -0.1,0.5 0,1 0.4,1.4 0.4,0.4 0.7,0.5 1.1,0.5 0.4,0 0.8,-0.2 1.1,-0.5 0.5,-0.5 0.6,-1.3 0.2,-1.9 l 5,-6.1 c 0.2,0.1 0.5,0.2 0.7,0.2 0.4,0 0.8,-0.2 1.1,-0.5 0.6,-0.6 0.6,-1.6 0,-2.2 -0.3,-0.3 -0.7,-0.5 -1.1,-0.5 v 0 c -0.4,0 -0.8,0.2 -1.1,0.5 -0.5,0.5 -0.6,1.3 -0.2,1.9 l -5,6 c -0.2,-0.1 -0.5,-0.2 -0.8,-0.2 -0.4,0 -0.8,0.2 -1.1,0.5 -0.3,0.3 0,0 0,0 l -4.3,-2.2 c 0,-0.1 0,-0.2 0,-0.3 0,-0.4 -0.2,-0.8 -0.5,-1.1 -0.3,-0.3 -0.7,-0.5 -1.1,-0.5 v 0 c -0.4,0 -0.8,0.2 -1.1,0.5 -0.5,0.5 -0.6,1.3 -0.2,1.9 l -4.9,4.9 c -0.2,-0.1 -0.5,-0.2 -0.8,-0.2 v 0 c -0.4,0 -0.8,0.2 -1.1,0.5 -0.6,0.6 -0.6,1.6 0,2.2 v 0 z m 21.6,-13.4 c 0.1,-0.1 0.3,-0.2 0.6,-0.2 v 0 c 0.2,0 0.4,0 0.6,0.2 0.3,0.3 0.3,0.8 0,1.1 -0.3,0.3 -0.8,0.3 -1.1,0 -0.3,-0.3 -0.3,-0.8 0,-1.1 z m -7,8.2 c 0.1,-0.1 0.3,-0.2 0.6,-0.2 v 0 c 0.2,0 0.4,0 0.6,0.2 0.3,0.3 0.3,0.8 0,1.1 -0.3,0.3 -0.8,0.3 -1.1,0 -0.3,-0.3 -0.3,-0.8 0,-1.1 z m -7,-3.5 c 0.1,-0.1 0.3,-0.2 0.6,-0.2 v 0 c 0.2,0 0.4,0 0.6,0.2 0.1,0.1 0.2,0.3 0.2,0.6 0,0.3 0,0.4 -0.2,0.6 -0.3,0.3 -0.8,0.3 -1.1,0 -0.3,-0.3 -0.3,-0.8 0,-1.1 z m -7.1,7 c 0.1,-0.1 0.3,-0.2 0.6,-0.2 v 0 c 0.2,0 0.4,0 0.6,0.2 0.1,0.1 0.2,0.3 0.2,0.6 0,0.3 0,0.4 -0.2,0.6 -0.3,0.3 -0.8,0.3 -1.1,0 -0.3,-0.3 -0.3,-0.8 0,-1.1 z" id="path22" style="enable-background:new 0 0 250.9 251;fill:#ffffff"></path>
            <path class="st1" d="m 60.205572,173.60124 h -0.8 v -16 c 0,-0.2 -0.2,-0.4 -0.4,-0.4 h -3.5 c -0.2,0 -0.4,0.2 -0.4,0.4 v 16 h -2.8 v -7.8 c 0,-0.2 -0.2,-0.4 -0.4,-0.4 h -3.5 c -0.2,0 -0.4,0.2 -0.4,0.4 v 7.8 h -2.8 v -11.3 c 0,-0.2 -0.2,-0.4 -0.4,-0.4 h -3.5 c -0.2,0 -0.4,0.2 -0.4,0.4 v 11.3 h -2.8 v -4.3 c 0,-0.2 -0.2,-0.4 -0.4,-0.4 h -3.5 c -0.2,0 -0.4,0.2 -0.4,0.4 v 4.3 h -0.8 c -0.2,0 -0.4,0.2 -0.4,0.4 0,0.2 0.2,0.4 0.4,0.4 h 26.9 c 0.2,0 0.4,-0.2 0.4,-0.4 0,-0.2 -0.2,-0.4 -0.4,-0.4 z" id="path23-5" style="enable-background:new 0 0 250.9 251;fill:#ffffff"></path>
        </g>
        <text class="st1 st8 st9" id="text29" inkscape:label="analyse" style="enable-background:new 0 0 250.9 251;font-style:normal;font-variant:normal;font-weight:normal;font-stretch:normal;font-size:14.6667px;font-family:'Nunito Sans';-inkscape-font-specification:'Nunito Sans, @wght=400';font-variant-ligatures:normal;font-variant-caps:normal;font-variant-numeric:normal;font-variant-east-asian:normal;font-variation-settings:'wght' 400;fill:#ffffff" x="24.928749" y="191.31519">Analyse</text>
    </a>
    <a href="https://eui.libguides.com/research-data-guide/process-analyse" id="link-to-analysing" inkscape:label="link-to-process" style="enable-background:new 0 0 250.9 251;text-decoration:none;" target="_top" title="analysing">
        <g id="AnalysePath" inkscape:label="ProcessPath">
            <path class="st13" d="m 149,218.3 1,-36.2 c -7.5,3.3 -15.8,5.1 -24.5,5.1 -8.5,0 -16.6,-1.7 -24,-4.9 l -29.1,21.8 0.9,35.5 c 15.9,7.3 33.6,11.4 52.2,11.4 18.4,0 36,-4 51.7,-11.1 z" id="path15" style="display:inline"></path>
        </g>
        <path class="st1" d="m 106.59092,197.87956 c 0.1,0 0.2,0 0.4,0 7,0 14,0 21,0 0.3,0 0.6,0 0.8,0.1 0.5,0.2 0.7,0.7 0.7,1.2 0,4.3 0,8.6 0,12.8 0,0.4 -0.1,0.7 -0.3,1 -0.3,0.3 -0.7,0.5 -1.1,0.5 -7.1,0 -14.1,0 -21.2,0 -0.4,0 -0.9,-0.2 -1.1,-0.6 -0.2,-0.3 -0.3,-0.6 -0.3,-0.9 0,-4.3 0,-8.5 0,-12.8 0,-0.4 0.1,-0.8 0.4,-1 0.2,-0.1 0.4,-0.2 0.7,-0.3 z m 4.9,5.8 c -0.3,0 -0.7,0.2 -1,0.4 -0.2,0.1 -0.3,0.4 -0.4,0.6 -0.4,0.6 -0.4,1.4 0,2.1 0.4,0.6 1,0.9 1.6,1 0.5,0 1,-0.1 1.4,-0.4 0.1,-0.1 0.2,-0.1 0.3,-0.3 0.3,-0.5 0.5,-1.1 0.4,-1.6 -0.1,-0.6 -0.5,-1.2 -1.1,-1.5 -0.3,-0.3 -0.7,-0.3 -1.2,-0.3 z m 11.1,0 c -0.4,0.1 -0.9,0.2 -1.2,0.5 -0.3,0.4 -0.5,0.8 -0.5,1.3 -0.1,1 0.7,2 1.6,2.1 0.6,0.1 1.2,-0.1 1.7,-0.4 0.2,-0.1 0.3,-0.3 0.4,-0.4 0.3,-0.5 0.4,-1.1 0.2,-1.6 -0.1,-0.4 -0.3,-0.7 -0.6,-1 -0.5,-0.4 -1.1,-0.6 -1.6,-0.5 z m -5.6,0 c -0.3,0 -0.5,0.1 -0.8,0.3 -0.2,0.1 -0.4,0.2 -0.5,0.4 -0.4,0.6 -0.5,1.3 -0.3,1.9 0.2,0.6 0.6,1 1.2,1.3 0.6,0.3 1.3,0.1 1.9,-0.2 0.1,-0.1 0.3,-0.1 0.4,-0.3 0.3,-0.4 0.5,-0.9 0.4,-1.5 0,-0.7 -0.5,-1.5 -1.2,-1.8 -0.3,-0.1 -0.7,-0.1 -1.1,-0.1 z" id="path10-3" style="fill:#ffffff"></path>
        <path class="st1" d="m 111.49092,204.77956 c 0.3,-0.1 0.6,0 0.9,0.1 0.2,0.1 0.3,0.3 0.3,0.5 0.1,0.3 0,0.7 -0.3,1 -0.4,0.4 -1.3,0.2 -1.5,-0.4 -0.1,-0.4 0.2,-1 0.6,-1.2 z" id="path11-7" style="fill:#ffffff"></path>
        <path class="st1" d="m 117.09092,204.77956 c 0.4,-0.2 0.9,0.1 1.1,0.5 0.1,0.3 0.1,0.6 0,0.9 -0.2,0.3 -0.5,0.4 -0.8,0.4 -0.3,0 -0.5,-0.2 -0.6,-0.4 -0.2,-0.3 -0.3,-0.7 -0.1,-1 -0.1,-0.2 0.2,-0.3 0.4,-0.4 z" id="path12-6" style="fill:#ffffff"></path>
        <path class="st1" d="m 122.49092,204.77956 c 0.3,-0.1 0.7,0 1,0.2 0.2,0.2 0.3,0.5 0.3,0.7 0,0.4 -0.4,0.8 -0.8,0.9 -0.3,0 -0.6,-0.1 -0.8,-0.3 -0.2,-0.2 -0.3,-0.5 -0.2,-0.8 0,-0.3 0.2,-0.6 0.5,-0.7 z" id="path13-8" style="fill:#ffffff"></path>
        <path class="st1" d="m 113.99092,214.67956 c 0.9,0 1.7,0 2.6,0 1.3,0 2.7,0 4,0 0.2,0 0.5,0.1 0.5,0.4 0.3,0.9 0.6,1.9 0.9,2.8 0.1,0.2 0.1,0.4 0.3,0.6 0.1,0.1 0.3,0.1 0.4,0.1 0.7,0 1.4,0 2.1,0 0.2,0 0.4,0 0.5,0.2 0.3,0.3 0.1,0.7 -0.2,0.8 -0.1,0 -0.2,0 -0.3,0 -5,0 -10.1,0 -15.1,0 -0.3,0 -0.6,-0.3 -0.5,-0.6 0,-0.3 0.3,-0.5 0.6,-0.5 0.7,0 1.5,0 2.2,0 0.3,0 0.5,-0.2 0.6,-0.4 0.3,-0.9 0.6,-1.9 0.9,-2.8 0.1,-0.2 0.1,-0.3 0.2,-0.5 0,-0.1 0.2,-0.1 0.3,-0.1 z" id="path14-6" style="fill:#ffffff"></path>
        <text class="st1 st8 st9" id="text30" inkscape:label="process" style="font-style:normal;font-variant:normal;font-weight:normal;font-stretch:normal;font-size:14.6667px;font-family:'Nunito Sans';-inkscape-font-specification:'Nunito Sans, @wght=400';font-variant-ligatures:normal;font-variant-caps:normal;font-variant-numeric:normal;font-variant-east-asian:normal;font-variation-settings:'wght' 400;fill:#ffffff" x="92.004288" y="236.93619">Process</text>
    </a>
    <a href="https://eui.libguides.com/research-data-guide/document-organise-store" id="link-to-organise" inkscape:label="link-to-organise" style="display:inline;text-decoration:none;" target="_top" title="organise">
        <g id="ProcessPath" inkscape:label="OrganizePath">
            <path class="st14" d="M 211.7,165 184,141.6 c -4.4,16.4 -15.5,30.1 -30.1,38.1 l -1.1,36.3 28.3,21.5 c 31.9,-16.2 56,-45.6 65,-81.1 z" id="path9"></path>
            <path class="st1" d="m 202.7,171.8 h -12.9 c -0.4,0 -1.1,-0.3 -1.3,-0.7 l -1,-1.5 c -0.4,-0.6 -1.4,-1.2 -2.2,-1.2 h -6.2 c 0,0 0,0 -0.1,0 -0.8,0 -1.5,0.8 -1.5,1.6 v 22.4 c 0,0.3 0.2,0.5 0.5,0.5 h 25.8 c 0.3,0 0.5,-0.2 0.5,-0.5 v -19 c 0,-0.9 -0.7,-1.6 -1.6,-1.6 z m 0.6,20.1 h -24.8 v -14.7 h 24.8 z m 0,-15.7 H 178.5 V 170 c 0,-0.3 0.3,-0.6 0.6,-0.6 0.3,0 0,0 0,0 h 6.1 c 0.4,0 1.1,0.3 1.3,0.7 l 1,1.5 c 0.4,0.6 1.4,1.2 2.2,1.2 h 12.9 c 0.3,0 0.6,0.3 0.6,0.6 v 2.9 z" id="path8" style="fill:#ffffff"></path>
            <path class="st1" d="m 187.8,180.6 h 9 c 0.3,0 0.5,-0.2 0.5,-0.5 0,-0.3 -0.2,-0.5 -0.5,-0.5 h -9 c -0.3,0 -0.5,0.2 -0.5,0.5 0,0.3 0.2,0.5 0.5,0.5 z" id="path9-6" style="fill:#ffffff"></path>
            <path class="st1" d="m 187.8,184.8 h 9 c 0.3,0 0.5,-0.2 0.5,-0.5 0,-0.3 -0.2,-0.5 -0.5,-0.5 h -9 c -0.3,0 -0.5,0.2 -0.5,0.5 0,0.3 0.2,0.5 0.5,0.5 z" id="path10" style="fill:#ffffff"></path>
            <path class="st1" d="m 187.8,188.8 h 9 c 0.3,0 0.5,-0.2 0.5,-0.5 0,-0.3 -0.2,-0.5 -0.5,-0.5 h -9 c -0.3,0 -0.5,0.2 -0.5,0.5 0,0.3 0.2,0.5 0.5,0.5 z" id="path11" style="fill:#ffffff"></path>
            <path class="st1" d="m 185.1,181.1 c 0.6,0 1,-0.5 1,-1 0,-0.5 -0.5,-1 -1,-1 -0.5,0 -1,0.5 -1,1 0,0.5 0.5,1 1,1 z" id="path12" style="fill:#ffffff"></path>
            <path class="st1" d="m 185.1,185.3 c 0.6,0 1,-0.5 1,-1 0,-0.5 -0.5,-1 -1,-1 -0.5,0 -1,0.5 -1,1 0,0.5 0.5,1 1,1 z" id="path13" style="fill:#ffffff"></path>
            <path class="st1" d="m 185.1,189.3 c 0.6,0 1,-0.5 1,-1 0,-0.5 -0.5,-1 -1,-1 -0.5,0 -1,0.5 -1,1 0,0.5 0.5,1 1,1 z" id="path14" style="fill:#ffffff"></path>
        </g>
        <text class="st1 st8 st9" id="text31" inkscape:label="organise" style="font-style:normal;font-variant:normal;font-weight:normal;font-stretch:normal;font-size:14.6667px;font-family:'Nunito Sans';-inkscape-font-specification:'Nunito Sans, @wght=400';font-variant-ligatures:normal;font-variant-caps:normal;font-variant-numeric:normal;font-variant-east-asian:normal;font-variation-settings:'wght' 400;fill:#ffffff" x="156.8618" y="207.10945">Organise</text>
    </a>
    <a href="https://eui.libguides.com/research-data-guide/discover-access-collect" id="link-to-collect" inkscape:label="link-to-collect" style="enable-background:new 0 0 250.9 251;text-decoration:none;" target="_top" title="organise">
        <g id="OrganisePath" inkscape:label="CollectPath">
            <path class="st16" d="M213.9,159.8l34.4-8.7c1.7-8.3,2.6-16.8,2.6-25.6c0-28.5-9.5-54.7-25.4-75.8L210.8,82l-35.6,7                                     c7.5,10.2,11.9,22.8,11.9,36.4c0,3.7-0.3,7.3-1,10.8L213.9,159.8z" id="path6"></path>
            <path class="st1" d="m 233.12167,114.63426 -4.5,-4.5 c -0.8,-0.8 -2.1,-0.9 -3,-0.2 l -1.9,-1.9 c 1.8,-1.9 2.8,-4.4 2.8,-7.2 0,-5.799998 -4.7,-10.599998 -10.6,-10.599998 -5.9,0 -10.6,4.7 -10.6,10.599998 0,5.9 4.7,10.6 10.6,10.6 5.9,0 5.3,-1.1 7.2,-2.8 l 1.9,1.9 c -0.6,0.9 -0.6,2.2 0.2,3 l 4.5,4.5 c 0.4,0.4 1,0.7 1.6,0.7 0.6,0 1.2,-0.2 1.6,-0.7 0.9,-0.9 0.9,-2.4 0,-3.3 z m -26.9,-13.8 c 0,-5.399998 4.4,-9.799998 9.8,-9.799998 5.4,0 9.8,4.4 9.8,9.799998 0,5.4 -4.4,9.8 -9.8,9.8 -5.4,0 -9.8,-4.4 -9.8,-9.8 z m 26.3,16.5 c -0.6,0.6 -1.6,0.6 -2.2,0 l -4.5,-4.5 c -0.6,-0.6 -0.6,-1.6 0,-2.2 0.3,-0.3 0.7,-0.5 1.1,-0.5 0.4,0 0.8,0.2 1.1,0.5 l 4.5,4.5 c 0.6,0.6 0.6,1.6 0,2.2 z" id="path6-1" inkscape:transform-center-x="1.7342621" inkscape:transform-center-y="-1.7342621" style="fill:#ffffff"></path>
            <path class="st1" d="m 217.92167,92.834262 c -0.6,-0.1 -1.2,-0.2 -1.8,-0.2 h -0.1 c 0,0 -0.1,0 -0.1,0 -0.5,0 -1,0 -1.4,0.1 v 0 c -3.8,0.8 -6.5,4.1 -6.5,7.999998 0,3.9 2.7,7.2 6.5,8 0.5,0.1 1,0.2 1.5,0.2 h 0.1 c 0,0 0.1,0 0.1,0 0.6,0 1.2,0 1.7,-0.2 v 0 c 3.7,-0.9 6.3,-4.2 6.3,-8 0,-3.799998 -2.6,-7.099998 -6.3,-7.899998 z m -9.3,8.299998 h 2.5 c 0,1.2 0.3,2.3 0.7,3.3 h -2.2 c -0.6,-1 -0.9,-2.1 -1,-3.3 z m 7.8,-4.299998 v -3.1 c 1.2,0.8 2.2,1.8 2.8,3.1 z m 3.1,0.7 c 0.4,0.9 0.6,1.9 0.6,2.899998 h -3.8 v -2.899998 z m -3.9,-0.7 h -2.8 c 0.7,-1.3 1.6,-2.4 2.8,-3.1 z m 0,0.7 v 2.899998 h -3.8 c 0,-0.999998 0.2,-1.999998 0.6,-2.899998 z m -4.5,2.899998 h -2.5 c 0,-0.999998 0.3,-1.999998 0.7,-2.899998 h 2.3 c -0.3,0.9 -0.5,1.9 -0.6,2.899998 z m 0.7,0.7 h 3.8 v 3.3 h -3 c -0.5,-1 -0.8,-2.2 -0.8,-3.3 z m 3.8,4.1 v 2.7 c -1.1,-0.7 -1.9,-1.6 -2.6,-2.7 z m 0.8,0 h 2.6 c -0.6,1.1 -1.5,2 -2.6,2.7 z m 0,-0.7 v -3.3 h 3.8 c 0,1.2 -0.3,2.3 -0.8,3.3 z m 4.5,-3.4 h 2.5 c 0,1.2 -0.4,2.3 -1,3.3 h -2.2 c 0.4,-1 0.7,-2.2 0.7,-3.3 z m 0,-0.7 c 0,-0.999998 -0.2,-1.999998 -0.6,-2.899998 h 2.3 c 0.4,0.9 0.7,1.8 0.7,2.899998 h -2.5 z m 1.3,-3.599998 h -2.2 c -0.6,-1.3 -1.5,-2.4 -2.6,-3.3 0,0 0.2,0 0.2,0 1.9,0.5 3.5,1.6 4.5,3.2 z m -7.8,-3.3 v 0 c 0,0 0,0 0,0 -1.1,0.9 -2,2 -2.6,3.3 h -2.2 c 1,-1.6 2.7,-2.9 4.7,-3.3 z m -4.3,11.699998 h 2.1 c 0.6,1.1 1.4,2.1 2.3,2.8 0,0 0,0 0,0 -1.8,-0.4 -3.4,-1.4 -4.4,-2.8 z m 7.7,2.8 v 0 c 0,0 -0.2,0 -0.2,0 1,-0.8 1.7,-1.7 2.3,-2.8 h 2.1 c -1,1.3 -2.4,2.3 -4.1,2.7 z" id="path5" inkscape:transform-center-x="5.0717622" inkscape:transform-center-y="-5.4342622" style="fill:#ffffff"></path>
        </g>
        <text class="st1 st8 st9" id="text33" inkscape:label="collect" style="font-style:normal;font-variant:normal;font-weight:normal;font-stretch:normal;font-size:14.6667px;font-family:'Nunito Sans';-inkscape-font-specification:'Nunito Sans, @wght=400';font-variant-ligatures:normal;font-variant-caps:normal;font-variant-numeric:normal;font-variant-east-asian:normal;font-variation-settings:'wght' 400;fill:#ffffff" x="195.85652" y="131.75453">Collect</text>
    </a>
    <a href="https://eui.libguides.com/research-data-guide/plan" id="link-to-planning" inkscape:export-filename="link-to-planning.png" inkscape:export-xdpi="407.21103" inkscape:export-ydpi="407.21103" inkscape:label="link-to-plan" style="enable-background:new 0 0 250.9 251;text-decoration:none;" target="_top" title="planning">
        <g id="PlanPath" inkscape:label="PlanPath">
            <path class="st15" d="M144.4,31.6l-16.6,32.3c17.5,0.7,33.2,8.6,44,20.9l35.7-7l14.6-32.4C199.6,18.3,166,0.8,128.2,0L144.4,31.6z" id="path1"></path>
        </g>
        <path class="st1" d="m 187.5,35.1 c -0.4,-0.4 -0.8,-0.6 -1.4,-0.6 v 0 c -0.5,0 -1,0.2 -1.4,0.6 l -1,1 -6.7,6.7 c 0,0 -0.1,0.1 -0.1,0.2 l -0.7,2.7 c 0,0.2 0,0.4 0.1,0.5 0.1,0.1 0.2,0.1 0.4,0.1 0.2,0 0,0 0.1,0 l 2.7,-0.7 c 0,0 0.2,0 0.2,-0.1 l 6.7,-6.7 1,-1 c 0.4,-0.4 0.6,-0.8 0.6,-1.4 0,-0.6 -0.2,-1 -0.6,-1.4 z m -8.3,9.6 -1.7,0.4 0.4,-1.7 6.3,-6.3 1.3,1.3 z m 7.6,-7.6 -0.7,0.7 -1.3,-1.3 0.7,-0.7 c 0.2,-0.2 0.4,-0.3 0.7,-0.3 v 0 c 0.2,0 0.5,0 0.7,0.3 0.2,0.2 0.3,0.4 0.3,0.7 0,0.3 0,0.5 -0.3,0.7 z" id="path2" style="fill:#ffffff"></path>
        <path class="st1" d="m 176.7,24.7 h 5.5 v 9.1 c 0,0.3 0.2,0.5 0.5,0.5 0.3,0 0.5,-0.2 0.5,-0.5 v -9.6 c 0,0 0,0 0,0 0,0 0,0 0,0 0,0 0,-0.2 -0.1,-0.2 l -6,-6 c 0,0 -0.1,0 -0.2,-0.1 0,0 0,0 0,0 0,0 0,0 0,0 h -13.4 c -0.8,0 -1.5,0.7 -1.5,1.5 V 45 c 0,0.8 0.7,1.5 1.5,1.5 h 11 c 0.3,0 0.5,-0.2 0.5,-0.5 0,-0.3 -0.2,-0.5 -0.5,-0.5 h -11 C 163.2,45.5 163,45.3 163,45 V 19.4 c 0,-0.3 0.2,-0.5 0.5,-0.5 h 12.9 v 5.5 c 0,0.3 0.2,0.5 0.5,0.5 z m 0.5,-1 v -4.3 l 4.3,4.3 z" id="path3" style="fill:#ffffff"></path>
        <text class="st1 st8 st9" id="text32" inkscape:label="plan" style="enable-background:new 0 0 250.9 251;font-style:normal;font-variant:normal;font-weight:normal;font-stretch:normal;font-size:14.6667px;font-family:'Nunito Sans';-inkscape-font-specification:'Nunito Sans, @wght=400';font-variant-ligatures:normal;font-variant-caps:normal;font-variant-numeric:normal;font-variant-east-asian:normal;font-variation-settings:'wght' 400;fill:#ffffff" x="159.38734" y="62.557358">Plan</text>
    </a>
    <g id="g39" inkscape:label="RDM" style="enable-background:new 0 0 250.9 251" transform="translate(-0.36137484,0.0843542)">
        <g id="g35">
            <circle class="st3" cx="125.8" cy="125.4" id="circle32" r="50" style="fill:none;stroke:#e0dfde;stroke-miterlimit:10"></circle>
            <text class="st2" id="text35" inkscape:label="text" style="font-style:normal;font-variant:normal;font-weight:normal;font-stretch:normal;font-size:12px;font-family:'Nunito Sans';-inkscape-font-specification:'Nunito Sans, @wght=400';font-variant-ligatures:normal;font-variant-caps:normal;font-variant-numeric:normal;font-variant-east-asian:normal;font-variation-settings:'wght' 400;fill:#004676" x="100.90204" y="122.78568">
                <tspan id="tspan33" style="font-style:normal;font-variant:normal;font-weight:normal;font-stretch:normal;font-size:12px;font-family:'Nunito Sans';-inkscape-font-specification:'Nunito Sans, @wght=400';font-variant-ligatures:normal;font-variant-caps:normal;font-variant-numeric:normal;font-variant-east-asian:normal;font-variation-settings:'wght' 400" x="100.90204" y="122.78568">Research </tspan>
                <tspan id="tspan34" style="font-style:normal;font-variant:normal;font-weight:normal;font-stretch:normal;font-size:12px;font-family:'Nunito Sans';-inkscape-font-specification:'Nunito Sans, @wght=400';font-variant-ligatures:normal;font-variant-caps:normal;font-variant-numeric:normal;font-variant-east-asian:normal;font-variation-settings:'wght' 400" x="112.80203" y="137.18567">Data </tspan>
                <tspan id="tspan35" style="font-style:normal;font-variant:normal;font-weight:normal;font-stretch:normal;font-size:12px;font-family:'Nunito Sans';-inkscape-font-specification:'Nunito Sans, @wght=400';font-variant-ligatures:normal;font-variant-caps:normal;font-variant-numeric:normal;font-variant-east-asian:normal;font-variation-settings:'wght' 400" x="89.002037" y="151.58568">Management</tspan>
            </text>
        </g>
        <g id="g38">
            <path class="st5" d="m 137.8,94.9 v 14.3 h -8.1 V 89.4 c 0,0 -7.9,0 -7.9,0 v 19.8 h -8.1 V 94.9 c 0,0 0,-1.2 0,-1.2 0,-6.7 5.4,-12 12,-12 v 0 c 6.7,0 12,5.4 12,12 v 1.2 z" id="path35" style="fill:#004d7a"></path>
            <g id="g37">
                <path class="st5" d="m 124.3,92.6 v 0 c 0.6,0 1.1,0.5 1.1,1.1 v 2.4 h -2.2 v -2.4 c 0,-0.6 0.5,-1.1 1.1,-1.1 z" id="path36" style="fill:#004d7a"></path>
                <path class="st5" d="m 127.2,92.6 v 0 c 0.6,0 1.1,0.5 1.1,1.1 v 2.4 h -2.2 v -2.4 c 0,-0.6 0.5,-1.1 1.1,-1.1 z" id="path37" style="fill:#004d7a"></path>
            </g>
        </g>
    </g>
</svg>